<svg xmlns="http://www.w3.org/2000/svg" width="666" height="1000" viewBox="0 0 666 1000" version="1.1"><path d="M 191.050 346.092 C 179.667 348.323, 168.225 357.846, 163.821 368.753 L 161.500 374.500 161.225 487.890 C 161.055 558.294, 161.319 603.274, 161.923 606.539 C 164.122 618.435, 172.027 628.780, 182.764 633.812 L 188.500 636.500 265.373 636.774 L 342.246 637.048 341.573 634.774 C 341.204 633.523, 340.146 629.013, 339.223 624.750 L 337.544 617 265.673 617 C 185.685 617, 189.797 617.346, 184.300 610.160 L 181.500 606.500 181.500 573.555 L 181.500 540.609 216 511.743 C 234.975 495.867, 253.963 479.987, 258.196 476.454 L 265.893 470.031 268.515 473.766 C 273.289 480.563, 286.059 499.344, 324.191 555.642 C 327.256 560.168, 328.647 561, 333.148 561 C 340.336 561, 340.130 561.402, 352.013 524.250 C 357.158 508.163, 361.623 495.002, 361.934 495.004 C 362.245 495.006, 365.875 498.369, 370 502.478 C 378.955 511.397, 377.352 511.185, 387.175 504.750 L 395.189 499.500 377.344 482.267 C 350.312 456.161, 350.470 456.099, 336.945 498 C 326.200 531.289, 327.129 529.663, 322.757 522.853 C 319.236 517.370, 298.301 485.558, 283.176 462.708 C 269.942 442.715, 268.228 442.114, 255.061 452.847 C 224.833 477.487, 194.710 502.531, 187.272 509.206 C 184.947 511.293, 182.585 513, 182.022 513 C 179.906 513, 180.735 380.172, 182.881 375.500 C 188.014 364.320, 177.612 365.093, 323.500 365.049 C 458.964 365.009, 455.563 364.880, 460.733 370.240 C 465.935 375.633, 466 376.233, 466 418.896 L 466 458.662 454.750 469.056 C 448.563 474.773, 442.495 480.361, 441.267 481.475 C 440.039 482.589, 439.028 483.725, 439.019 484 C 439.011 484.275, 446.090 484.535, 454.752 484.577 C 465.866 484.631, 472.505 485.146, 477.312 486.327 C 481.059 487.247, 484.546 488, 485.062 488 C 486.938 488, 486.247 377.088, 484.336 371.428 C 479.838 358.108, 468.979 348.543, 455.566 346.087 C 448.298 344.756, 197.840 344.760, 191.050 346.092 M 351.994 391.876 C 320.486 402.198, 326.679 450, 359.524 450 C 391.899 450, 401.880 408.108, 373 393.440 C 369.134 391.477, 356.160 390.511, 351.994 391.876 M 351.882 411.882 C 343.626 420.139, 348.874 433, 360.500 433 C 368.018 433, 373.035 427.888, 372.965 420.300 C 372.858 408.854, 360.031 403.733, 351.882 411.882 M 431.173 515.508 C 377.012 529.503, 349.810 589.976, 374.949 640.500 C 410.545 712.039, 515.859 702.254, 538.579 625.297 C 557.771 560.289, 497.257 498.433, 431.173 515.508 M 435.577 531.976 C 383.045 546.322, 363.733 618.995, 403.682 652.002 C 412.508 659.294, 415.534 661.372, 421.910 664.524 C 461.108 683.896, 506.604 665.011, 521.318 623.261 C 539.625 571.322, 488.972 517.395, 435.577 531.976 M 448.500 559.943 C 439.070 563.790, 437.219 574.531, 442.027 597.500 C 443.063 602.450, 444.184 608.638, 444.517 611.250 L 445.123 616 454.042 616 C 464.081 616, 463.234 616.768, 464.514 606.500 C 464.857 603.750, 465.845 598.800, 466.709 595.500 C 473.026 571.390, 463.938 553.644, 448.500 559.943 M 445 635 L 445 643 454 643 L 463 643 463 635 L 463 627 454 627 L 445 627 445 635" stroke="none" fill="#040404" fill-rule="evenodd"/><path d="M 0 500.001 L 0 1000.003 333.250 999.751 L 666.500 999.500 666.751 499.750 L 667.002 0 333.501 0 L 0 0 0 500.001 M 0.496 500.500 C 0.496 775.500, 0.610 887.851, 0.750 750.168 C 0.890 612.486, 0.890 387.486, 0.750 250.168 C 0.610 112.851, 0.496 225.500, 0.496 500.500 M 191.050 346.092 C 179.667 348.323, 168.225 357.846, 163.821 368.753 L 161.500 374.500 161.225 487.890 C 161.055 558.294, 161.319 603.274, 161.923 606.539 C 164.122 618.435, 172.027 628.780, 182.764 633.812 L 188.500 636.500 265.373 636.774 L 342.246 637.048 341.573 634.774 C 341.204 633.523, 340.146 629.013, 339.223 624.750 L 337.544 617 265.673 617 C 185.685 617, 189.797 617.346, 184.300 610.160 L 181.500 606.500 181.500 573.555 L 181.500 540.609 216 511.743 C 234.975 495.867, 253.963 479.987, 258.196 476.454 L 265.893 470.031 268.515 473.766 C 273.289 480.563, 286.059 499.344, 324.191 555.642 C 327.256 560.168, 328.647 561, 333.148 561 C 340.336 561, 340.130 561.402, 352.013 524.250 C 357.158 508.163, 361.623 495.002, 361.934 495.004 C 362.245 495.006, 365.875 498.369, 370 502.478 C 378.955 511.397, 377.352 511.185, 387.175 504.750 L 395.189 499.500 377.344 482.267 C 350.312 456.161, 350.470 456.099, 336.945 498 C 326.200 531.289, 327.129 529.663, 322.757 522.853 C 319.236 517.370, 298.301 485.558, 283.176 462.708 C 269.942 442.715, 268.228 442.114, 255.061 452.847 C 224.833 477.487, 194.710 502.531, 187.272 509.206 C 184.947 511.293, 182.585 513, 182.022 513 C 179.906 513, 180.735 380.172, 182.881 375.500 C 188.014 364.320, 177.612 365.093, 323.500 365.049 C 458.964 365.009, 455.563 364.880, 460.733 370.240 C 465.935 375.633, 466 376.233, 466 418.896 L 466 458.662 454.750 469.056 C 448.563 474.773, 442.495 480.361, 441.267 481.475 C 440.039 482.589, 439.028 483.725, 439.019 484 C 439.011 484.275, 446.090 484.535, 454.752 484.577 C 465.866 484.631, 472.505 485.146, 477.312 486.327 C 481.059 487.247, 484.546 488, 485.062 488 C 486.938 488, 486.247 377.088, 484.336 371.428 C 479.838 358.108, 468.979 348.543, 455.566 346.087 C 448.298 344.756, 197.840 344.760, 191.050 346.092 M 351.994 391.876 C 320.486 402.198, 326.679 450, 359.524 450 C 391.899 450, 401.880 408.108, 373 393.440 C 369.134 391.477, 356.160 390.511, 351.994 391.876 M 351.882 411.882 C 343.626 420.139, 348.874 433, 360.500 433 C 368.018 433, 373.035 427.888, 372.965 420.300 C 372.858 408.854, 360.031 403.733, 351.882 411.882 M 431.173 515.508 C 377.012 529.503, 349.810 589.976, 374.949 640.500 C 410.545 712.039, 515.859 702.254, 538.579 625.297 C 557.771 560.289, 497.257 498.433, 431.173 515.508 M 435.577 531.976 C 383.045 546.322, 363.733 618.995, 403.682 652.002 C 412.508 659.294, 415.534 661.372, 421.910 664.524 C 461.108 683.896, 506.604 665.011, 521.318 623.261 C 539.625 571.322, 488.972 517.395, 435.577 531.976 M 448.500 559.943 C 439.070 563.790, 437.219 574.531, 442.027 597.500 C 443.063 602.450, 444.184 608.638, 444.517 611.250 L 445.123 616 454.042 616 C 464.081 616, 463.234 616.768, 464.514 606.500 C 464.857 603.750, 465.845 598.800, 466.709 595.500 C 473.026 571.390, 463.938 553.644, 448.500 559.943 M 445 635 L 445 643 454 643 L 463 643 463 635 L 463 627 454 627 L 445 627 445 635" stroke="none" fill="#24242b" fill-rule="evenodd"/></svg>